<svg width="19" height="18" viewBox="0 0 19 18" fill="none" xmlns="http://www.w3.org/2000/svg">
<path d="M17.6742 7.43769L17.2989 7.90589L17.6742 7.43769ZM1.69135 7.9166L8.74588 2.42913L8.0091 1.48195L0.954566 6.96942L1.69135 7.9166ZM3.26644 14.6137V9.76485H2.06644V14.6137H3.26644ZM7.11725 15.9684H4.62118V17.1684H7.11725V15.9684ZM8.38203 15.7157V12.3049H7.18203V15.7157H8.38203ZM8.38203 12.3049C8.38203 11.6945 8.87692 11.1996 9.48741 11.1996V9.99956C8.21418 9.99956 7.18203 11.0317 7.18203 12.3049H8.38203ZM9.48741 11.1996C10.0979 11.1996 10.5928 11.6945 10.5928 12.3049H11.7928C11.7928 11.0317 10.7606 9.99956 9.48741 9.99956V11.1996ZM10.5928 12.3049V15.7157H11.7928V12.3049H10.5928ZM14.3544 15.9684H11.8576V17.1684H14.3544V15.9684ZM15.7095 9.77205V14.6133H16.9095V9.77205H15.7095ZM10.481 2.44173L17.2989 7.90589L18.0494 6.9695L11.2314 1.50534L10.481 2.44173ZM10.5928 15.7157C10.5928 16.0374 10.6979 16.3726 10.8879 16.6391C11.079 16.9073 11.4079 17.1684 11.8576 17.1684V15.9684C11.9106 15.9684 11.907 16.0015 11.865 15.9425C11.8458 15.9156 11.8267 15.8784 11.8127 15.8345C11.7987 15.7905 11.7928 15.7489 11.7928 15.7157H10.5928ZM7.11725 17.1684C7.5669 17.1684 7.89577 16.9073 8.08697 16.6391C8.2769 16.3726 8.38203 16.0374 8.38203 15.7157H7.18203C7.18203 15.7489 7.17614 15.7905 7.16215 15.8345C7.14817 15.8784 7.12902 15.9156 7.10981 15.9425C7.06778 16.0015 7.06426 15.9684 7.11725 15.9684V17.1684ZM2.06644 14.6137C2.06644 16.0246 3.21024 17.1684 4.62118 17.1684V15.9684C3.87298 15.9684 3.26644 15.3619 3.26644 14.6137H2.06644ZM17.1491 9.53245C18.5093 9.53245 19.1108 7.82013 18.0494 6.9695L17.2989 7.90589C17.4756 8.04746 17.3755 8.33245 17.1491 8.33245V9.53245ZM1.83404 9.53245C1.96239 9.53245 2.06644 9.6365 2.06644 9.76485H3.26644C3.26644 8.97376 2.62513 8.33245 1.83404 8.33245V9.53245ZM16.9095 9.77205C16.9095 9.63972 17.0168 9.53245 17.1491 9.53245V8.33245C16.354 8.33245 15.7095 8.97698 15.7095 9.77205H16.9095ZM8.74588 2.42913C9.25745 2.03121 9.97525 2.03642 10.481 2.44173L11.2314 1.50534C10.2922 0.752622 8.95915 0.742943 8.0091 1.48195L8.74588 2.42913ZM14.3544 17.1684C15.7655 17.1684 16.9095 16.0244 16.9095 14.6133H15.7095C15.7095 15.3617 15.1028 15.9684 14.3544 15.9684V17.1684ZM0.954566 6.96942C-0.121935 7.80679 0.470206 9.53245 1.83404 9.53245V8.33245C1.61276 8.33245 1.51669 8.05246 1.69135 7.9166L0.954566 6.96942Z" fill="#FF8F2E"/>
</svg>
