<svg width="15" height="16" viewBox="0 0 15 16" fill="none" xmlns="http://www.w3.org/2000/svg">
<path d="M7.07856 1.62797L1.71857 4.58797C1.22857 4.85797 1.22857 5.52797 1.71857 5.79797C3.54857 6.79797 5.37856 7.79797 7.20856 8.79797C7.43856 8.92797 7.72856 8.92797 7.95856 8.79797C9.73856 7.79797 11.5086 6.80797 13.2886 5.80797C13.7786 5.53797 13.7686 4.86797 13.2886 4.59797C11.4686 3.60797 9.64856 2.61797 7.82856 1.62797C7.59856 1.49797 7.31857 1.50797 7.08857 1.62797H7.07856Z" stroke="#FF8F2E" stroke-width="1.2" stroke-linecap="round" stroke-linejoin="round"/>
<path d="M0.618652 7.95801C2.93865 9.22801 5.25865 10.498 7.58865 11.768C9.85865 10.498 12.1186 9.22801 14.3886 7.95801" stroke="#FF8F2E" stroke-width="1.2" stroke-linecap="round" stroke-linejoin="round"/>
<path d="M0.618652 11.1079C2.93865 12.3779 5.25865 13.6479 7.58865 14.9179C9.85865 13.6479 12.1186 12.3779 14.3886 11.1079" stroke="#FF8F2E" stroke-width="1.2" stroke-linecap="round" stroke-linejoin="round"/>
</svg>
