<svg width="23" height="21" viewBox="0 0 23 21" fill="none" xmlns="http://www.w3.org/2000/svg">
<path d="M5.24265 5.93999L4.72303 6.23999L5.24265 5.93999ZM5.23557 15.8935L4.71596 15.5935L5.23557 15.8935ZM5.75276 18.9589L5.45276 19.4785L5.75276 18.9589ZM5.02781 16.2533L4.5082 15.9533L5.02781 16.2533ZM9.76894 19.1077L9.24932 18.8077L9.76894 19.1077ZM7.20192 19.7956L6.90192 20.3152L7.20192 19.7956ZM9.86421 18.9427L9.34459 18.6427L9.86421 18.9427ZM13.2706 19.0104L13.7902 18.7104L13.2706 19.0104ZM15.9252 19.8139L15.6252 19.2943L15.9252 19.8139ZM13.3336 19.1195L12.814 19.4195L13.3336 19.1195ZM18.0407 16.2062L18.5603 15.9062L18.0407 16.2062ZM17.2843 19.0292L16.9843 18.5096L17.2843 19.0292ZM17.7876 15.7678L17.268 16.0678L17.7876 15.7678ZM17.6931 5.70494L17.1735 5.40494L17.6931 5.70494ZM17.1778 2.59603L16.8778 3.11565L17.1778 2.59603ZM17.9101 5.32911L17.3905 5.02911L17.9101 5.32911ZM12.9466 2.85997L12.4269 2.55997L12.9466 2.85997ZM9.77858 2.73018L9.25896 3.03018L9.77858 2.73018ZM5.73077 2.49734L5.43077 1.97773L5.73077 2.49734ZM4.946 5.42617L4.42638 5.72617L4.946 5.42617ZM6.93456 1.80234L6.63456 1.28272L6.93456 1.80234ZM6.63456 1.28272L5.43077 1.97773L6.03077 3.01696L7.23456 2.32195L6.63456 1.28272ZM10.2982 2.43018L10.185 2.23405L9.14573 2.83405L9.25896 3.03018L10.2982 2.43018ZM12.607 2.24818L12.4269 2.55997L13.4662 3.15997L13.6462 2.84818L12.607 2.24818ZM17.4778 2.07642L16.137 1.30231L15.537 2.34154L16.8778 3.11565L17.4778 2.07642ZM18.2127 6.00494L18.4297 5.62911L17.3905 5.02911L17.1735 5.40494L18.2127 6.00494ZM19.4767 7.42494H19.0335V8.62494H19.4767V7.42494ZM22.0966 11.6019V10.0449H20.8966V11.6019H22.0966ZM19.0488 14.1805H19.518V12.9805H19.0488V14.1805ZM18.5603 15.9062L18.3073 15.4678L17.268 16.0678L17.5211 16.5062L18.5603 15.9062ZM16.2252 20.3335L17.5843 19.5488L16.9843 18.5096L15.6252 19.2943L16.2252 20.3335ZM12.751 19.3104L12.814 19.4195L13.8532 18.8195L13.7902 18.7104L12.751 19.3104ZM9.34459 18.6427L9.24932 18.8077L10.2886 19.4077L10.3838 19.2427L9.34459 18.6427ZM7.50192 19.276L6.05276 18.4393L5.45276 19.4785L6.90192 20.3152L7.50192 19.276ZM5.54743 16.5533L5.75519 16.1935L4.71596 15.5935L4.5082 15.9533L5.54743 16.5533ZM3.47517 14.1805H3.90125V12.9805H3.47517V14.1805ZM0.896582 10.0449V11.6019H2.09658V10.0449H0.896582ZM4.03944 7.42494H3.51651V8.62494H4.03944V7.42494ZM4.42638 5.72617L4.72303 6.23999L5.76226 5.63999L5.46561 5.12617L4.42638 5.72617ZM5.73353 7.59235C6.05971 7.0179 6.12775 6.27303 5.76226 5.63999L4.72303 6.23999C4.84168 6.4455 4.84193 6.73228 4.69001 6.99983L5.73353 7.59235ZM3.47517 12.9805C2.7138 12.9805 2.09658 12.3633 2.09658 11.6019H0.896582C0.896582 13.026 2.05105 14.1805 3.47517 14.1805V12.9805ZM5.7227 14.1024C5.37008 13.4766 4.70624 12.9805 3.90125 12.9805V14.1805C4.18984 14.1805 4.49303 14.3646 4.67722 14.6915L5.7227 14.1024ZM5.75519 16.1935C6.14693 15.515 6.06923 14.7175 5.7227 14.1024L4.67722 14.6915C4.85497 15.007 4.85827 15.347 4.71596 15.5935L5.75519 16.1935ZM6.05276 18.4393C5.39243 18.058 5.16618 17.2137 5.54743 16.5533L4.5082 15.9533C3.79558 17.1876 4.21848 18.7659 5.45276 19.4785L6.05276 18.4393ZM9.24932 18.8077C8.89609 19.4196 8.11375 19.6292 7.50192 19.276L6.90192 20.3152C8.0877 20.9998 9.60395 20.5935 10.2886 19.4077L9.24932 18.8077ZM11.4966 17.4792C10.6759 17.4792 9.80437 17.8464 9.34459 18.6427L10.3838 19.2427C10.5821 18.8993 11.0012 18.6792 11.4966 18.6792V17.4792ZM13.7902 18.7104C13.3007 17.8624 12.3683 17.4792 11.4966 17.4792V18.6792C12.0524 18.6792 12.5268 18.9221 12.751 19.3104L13.7902 18.7104ZM15.6252 19.2943C15.0048 19.6525 14.2114 19.4399 13.8532 18.8195L12.814 19.4195C13.5036 20.6139 15.0308 21.0231 16.2252 20.3335L15.6252 19.2943ZM17.5211 16.5062C17.9261 17.2076 17.6858 18.1046 16.9843 18.5096L17.5843 19.5488C18.8597 18.8125 19.2967 17.1816 18.5603 15.9062L17.5211 16.5062ZM17.2899 14.0677C16.9618 14.6583 16.8939 15.4199 17.268 16.0678L18.3073 15.4678C18.179 15.2457 18.1791 14.9381 18.3389 14.6504L17.2899 14.0677ZM20.8966 11.6019C20.8966 12.3633 20.2794 12.9805 19.518 12.9805V14.1805C20.9421 14.1805 22.0966 13.026 22.0966 11.6019H20.8966ZM19.4767 8.62494C20.2609 8.62494 20.8966 9.26066 20.8966 10.0449H22.0966C22.0966 8.59792 20.9236 7.42494 19.4767 7.42494V8.62494ZM17.223 7.52863C17.5803 8.14191 18.2388 8.62494 19.0335 8.62494V7.42494C18.7473 7.42494 18.4466 7.24517 18.2598 6.92455L17.223 7.52863ZM17.1735 5.40494C16.7747 6.09566 16.8616 6.90829 17.223 7.52863L18.2598 6.92455C18.0735 6.60474 18.0675 6.25651 18.2127 6.00494L17.1735 5.40494ZM16.8778 3.11565C17.5478 3.50246 17.7773 4.35914 17.3905 5.02911L18.4297 5.62911C19.1479 4.38519 18.7217 2.7946 17.4778 2.07642L16.8778 3.11565ZM11.4966 4.23475C12.2513 4.23475 13.0449 3.88961 13.4662 3.15997L12.4269 2.55997C12.2621 2.84544 11.914 3.03475 11.4966 3.03475V4.23475ZM9.25896 3.03018C9.73675 3.85774 10.645 4.23475 11.4966 4.23475V3.03475C10.9646 3.03475 10.5122 2.80077 10.2982 2.43018L9.25896 3.03018ZM4.03944 8.62494C4.78482 8.62494 5.40383 8.17301 5.73353 7.59235L4.69001 6.99983C4.5338 7.27495 4.27817 7.42494 4.03944 7.42494V8.62494ZM5.43077 1.97773C4.11831 2.73548 3.66863 4.41371 4.42638 5.72617L5.46561 5.12617C5.03923 4.38766 5.29226 3.44334 6.03077 3.01696L5.43077 1.97773ZM13.6462 2.84818C14.0284 2.18614 14.875 1.95931 15.537 2.34154L16.137 1.30231C14.901 0.588709 13.3206 1.01219 12.607 2.24818L13.6462 2.84818ZM19.0488 12.9805C18.2704 12.9805 17.6277 13.4595 17.2899 14.0677L18.3389 14.6504C18.5068 14.3482 18.7858 14.1805 19.0488 14.1805V12.9805ZM2.09658 10.0449C2.09658 9.26066 2.73231 8.62494 3.51651 8.62494V7.42494C2.06957 7.42494 0.896582 8.59792 0.896582 10.0449H2.09658ZM7.23456 2.32195C7.90372 1.93561 8.75938 2.16488 9.14573 2.83405L10.185 2.23405C9.46724 0.990932 7.87767 0.565009 6.63456 1.28272L7.23456 2.32195Z" fill="#FF8F2E"/>
<path d="M14.7852 10.8572C14.7852 12.6736 13.3127 14.146 11.4963 14.146C9.67991 14.146 8.20742 12.6736 8.20742 10.8572C8.20742 9.04075 9.67991 7.56826 11.4963 7.56826C13.3127 7.56826 14.7852 9.04075 14.7852 10.8572Z" stroke="#FF8F2E" stroke-width="1.2"/>
</svg>
