<svg width="16" height="15" viewBox="0 0 16 15" fill="none" xmlns="http://www.w3.org/2000/svg">
<g clip-path="url(#clip0_847_1121)">
<path fill-rule="evenodd" clip-rule="evenodd" d="M10.0648 1.30516C9.57501 0.512111 8.78907 0.0852623 7.97246 0.0960238C7.15649 0.106777 6.38015 0.553334 5.90409 1.35606L5.9035 1.35706C5.0857 2.7421 4.26555 4.12725 3.4452 5.51272C2.62507 6.89784 1.80472 8.28332 0.986635 9.66885C0.440798 10.5877 0.455963 11.6635 0.840811 12.5085C1.22572 13.3536 2.02391 14.0434 3.08376 14.0434H13.1481C14.2209 14.0434 15.0218 13.3387 15.4007 12.4815C15.7796 11.6243 15.7806 10.5357 15.2115 9.61696L10.0648 1.30516ZM8.14818 10.985C8.55483 10.985 8.88449 10.6539 8.88449 10.2454C8.88449 9.83698 8.55483 9.50586 8.14818 9.50586C7.74152 9.50586 7.41187 9.83698 7.41187 10.2454C7.41187 10.6539 7.74152 10.985 8.14818 10.985ZM8.71123 4.21414C8.71123 3.88276 8.4426 3.61414 8.11123 3.61414C7.77986 3.61414 7.51123 3.88276 7.51123 4.21414V7.99539C7.51123 8.32676 7.77986 8.59539 8.11123 8.59539C8.4426 8.59539 8.71123 8.32676 8.71123 7.99539V4.21414Z" fill="#FF8F2E"/>
</g>
<defs>
<clipPath id="clip0_847_1121">
<rect width="15" height="14" fill="white" transform="translate(0.611328 0.0683594)"/>
</clipPath>
</defs>
</svg>
