<svg width="18" height="17" viewBox="0 0 18 17" fill="none" xmlns="http://www.w3.org/2000/svg">
<path d="M1.41162 16.0293C1.41162 13.1707 3.72812 10.853 6.58179 10.853C9.43547 10.853 11.752 13.1707 11.752 16.0293" fill="#FF8F2E"/>
<path d="M1.41162 15.534C1.41162 12.9489 3.72812 10.853 6.58179 10.853C9.43547 10.853 11.752 12.9489 11.752 15.534" fill="#FF8F2E"/>
<path d="M1.41162 15.534C1.41162 12.9489 3.72812 10.853 6.58179 10.853C9.43547 10.853 11.752 12.9489 11.752 15.534" stroke="#FF8F2E" stroke-linecap="round" stroke-linejoin="round"/>
<path d="M6.58129 9.01173C8.39308 9.01173 9.86183 7.54301 9.86183 5.73122C9.86183 3.91944 8.39308 2.45068 6.58129 2.45068C4.76951 2.45068 3.30078 3.91944 3.30078 5.73122C3.30078 7.54301 4.76951 9.01173 6.58129 9.01173Z" fill="#FF8F2E" stroke="#FF8F2E" stroke-width="1.2" stroke-linecap="round" stroke-linejoin="round"/>
<path d="M11.7791 9.52722C14.383 9.52722 16.4967 11.6396 16.4967 14.2449" stroke="#FF8F2E" stroke-width="1.2" stroke-linecap="round" stroke-linejoin="round"/>
<path d="M11.9015 7.72066C13.6515 7.25174 14.6901 5.45292 14.2212 3.70287C13.7523 1.95282 11.9534 0.914254 10.2034 1.38318" stroke="#FF8F2E" stroke-width="1.2" stroke-linecap="round" stroke-linejoin="round"/>
</svg>
