<svg width="16" height="14" viewBox="0 0 16 14" fill="none" xmlns="http://www.w3.org/2000/svg">
<path fill-rule="evenodd" clip-rule="evenodd" d="M0.0512695 4.06838C0.0512695 2.08016 1.66304 0.468384 3.65127 0.468384H11.6513C13.6395 0.468384 15.2513 2.08016 15.2513 4.06838V7.06838C15.2513 9.05661 13.6395 10.6684 11.6513 10.6684H8.75146V12.4684H12.6513C12.9826 12.4684 13.2513 12.737 13.2513 13.0684C13.2513 13.3998 12.9826 13.6684 12.6513 13.6684H8.15146H3.65127C3.3199 13.6684 3.05127 13.3998 3.05127 13.0684C3.05127 12.737 3.3199 12.4684 3.65127 12.4684H7.55146V10.6684H3.65127C1.66304 10.6684 0.0512695 9.05661 0.0512695 7.06838V4.06838ZM8.15137 9.56836C8.42751 9.56836 8.65137 9.3445 8.65137 9.06836C8.65137 8.79222 8.42751 8.56836 8.15137 8.56836C7.87522 8.56836 7.65137 8.79222 7.65137 9.06836C7.65137 9.3445 7.87522 9.56836 8.15137 9.56836Z" fill="#FF8F2E"/>
</svg>
