<svg width="23" height="21" viewBox="0 0 23 21" fill="none" xmlns="http://www.w3.org/2000/svg">
<path fill-rule="evenodd" clip-rule="evenodd" d="M6.63446 1.28273C7.87758 0.565012 9.46715 0.990935 10.1849 2.23405L10.2981 2.43019C10.5121 2.80077 10.9645 3.03475 11.4965 3.03475C11.9139 3.03475 12.262 2.84544 12.4268 2.55997L12.6069 2.24818C13.3205 1.01219 14.9009 0.588712 16.1369 1.30231L17.4777 2.07642C18.7216 2.7946 19.1478 4.38519 18.4296 5.62911L18.2126 6.00494C18.0674 6.25652 18.0734 6.60474 18.2598 6.92455C18.4465 7.24517 18.7472 7.42494 19.0334 7.42494H19.4766C20.9235 7.42494 22.0965 8.59792 22.0965 10.0449V11.6019C22.0965 13.026 20.942 14.1805 19.5179 14.1805H19.0487C18.7857 14.1805 18.5067 14.3482 18.3388 14.6504C18.179 14.9381 18.1789 15.2457 18.3072 15.4678L18.5602 15.9062C19.2966 17.1816 18.8596 18.8125 17.5842 19.5488L16.2251 20.3335C15.0307 21.0231 13.5035 20.6139 12.8139 19.4195L12.7509 19.3104C12.5267 18.9221 12.0523 18.6792 11.4965 18.6792C11.0011 18.6792 10.582 18.8993 10.3837 19.2427L10.2885 19.4077C9.60385 20.5935 8.0876 20.9998 6.90182 20.3152L5.45266 19.4785C4.21838 18.7659 3.79548 17.1876 4.5081 15.9533L4.71586 15.5935C4.85817 15.347 4.85488 15.007 4.67712 14.6915C4.49293 14.3646 4.18974 14.1805 3.90115 14.1805H3.47507C2.05096 14.1805 0.896484 13.026 0.896484 11.6019V10.0449C0.896484 8.59792 2.06947 7.42494 3.51642 7.42494H4.03934C4.27807 7.42494 4.5337 7.27496 4.68992 6.99984C4.84184 6.73228 4.84159 6.4455 4.72293 6.23999L4.42628 5.72618C3.66853 4.41372 4.11821 2.73548 5.43067 1.97773L6.63446 1.28273ZM11.4966 14.746C13.6443 14.746 15.3854 13.0049 15.3854 10.8572C15.3854 8.70938 13.6443 6.96826 11.4966 6.96826C9.34878 6.96826 7.60767 8.70938 7.60767 10.8572C7.60767 13.0049 9.34878 14.746 11.4966 14.746Z" fill="#FF8F2E"/>
</svg>
