<svg width="17" height="14" viewBox="0 0 17 14" fill="none" xmlns="http://www.w3.org/2000/svg">
<path d="M12.7415 2.79834H15.6115" stroke="#FF8F2E" stroke-width="1.2" stroke-linecap="round" stroke-linejoin="round"/>
<path d="M1.21143 2.79834C3.74143 2.79834 6.27142 2.79834 8.80142 2.79834" stroke="#FF8F2E" stroke-width="1.2" stroke-linecap="round" stroke-linejoin="round"/>
<path d="M7.98145 7.29834C7.98145 7.29834 15.5614 7.29834 15.6114 7.29834" stroke="#FF8F2E" stroke-width="1.2" stroke-linecap="round" stroke-linejoin="round"/>
<path d="M1.21143 7.29834H4.23145" stroke="#FF8F2E" stroke-width="1.2" stroke-linecap="round" stroke-linejoin="round"/>
<path d="M12.5913 11.7983H15.6113" stroke="#FF8F2E" stroke-width="1.2" stroke-linecap="round" stroke-linejoin="round"/>
<path d="M1.21143 11.7983H8.99142" stroke="#FF8F2E" stroke-width="1.2" stroke-linecap="round" stroke-linejoin="round"/>
<path d="M10.9214 4.52836C11.8768 4.52836 12.6514 3.75381 12.6514 2.79836C12.6514 1.8429 11.8768 1.06836 10.9214 1.06836C9.96593 1.06836 9.19141 1.8429 9.19141 2.79836C9.19141 3.75381 9.96593 4.52836 10.9214 4.52836Z" fill="#FF8F2E" stroke="#FF8F2E" stroke-width="1.2" stroke-linecap="round" stroke-linejoin="round"/>
<path d="M6.05151 8.97831C7.00697 8.97831 7.78152 8.20377 7.78152 7.24831C7.78152 6.29286 7.00697 5.51831 6.05151 5.51831C5.09606 5.51831 4.32153 6.29286 4.32153 7.24831C4.32153 8.20377 5.09606 8.97831 6.05151 8.97831Z" fill="#FF8F2E" stroke="#FF8F2E" stroke-width="1.2" stroke-linecap="round" stroke-linejoin="round"/>
<path d="M10.9214 13.3883C11.8768 13.3883 12.6514 12.6138 12.6514 11.6583C12.6514 10.7029 11.8768 9.92834 10.9214 9.92834C9.96593 9.92834 9.19141 10.7029 9.19141 11.6583C9.19141 12.6138 9.96593 13.3883 10.9214 13.3883Z" fill="#FF8F2E" stroke="#FF8F2E" stroke-width="1.2" stroke-linecap="round" stroke-linejoin="round"/>
</svg>
