<svg width="17" height="16" viewBox="0 0 17 16" fill="none" xmlns="http://www.w3.org/2000/svg">
<path fill-rule="evenodd" clip-rule="evenodd" d="M6.09653 0.53418C6.4279 0.53418 6.69653 0.802809 6.69653 1.13418V1.9342H10.4965V1.13418C10.4965 0.802809 10.7652 0.53418 11.0965 0.53418C11.4279 0.53418 11.6965 0.802809 11.6965 1.13418V1.9342H12.4965C14.4847 1.9342 16.0964 3.54594 16.0965 5.53413H0.896484C0.896524 3.54594 2.50828 1.9342 4.49648 1.9342H5.49653V1.13418C5.49653 0.802809 5.76516 0.53418 6.09653 0.53418ZM0.896484 6.73413H16.0965V11.5342C16.0965 13.5224 14.4847 15.1342 12.4965 15.1342H4.49648C2.50826 15.1342 0.896484 13.5224 0.896484 11.5342V6.73413ZM5.49658 11.0342C5.9108 11.0342 6.24658 10.6984 6.24658 10.2842C6.24658 9.86997 5.9108 9.53418 5.49658 9.53418C5.08237 9.53418 4.74658 9.86997 4.74658 10.2842C4.74658 10.6984 5.08237 11.0342 5.49658 11.0342ZM9.24658 10.2842C9.24658 10.6984 8.9108 11.0342 8.49658 11.0342C8.08237 11.0342 7.74658 10.6984 7.74658 10.2842C7.74658 9.86997 8.08237 9.53418 8.49658 9.53418C8.9108 9.53418 9.24658 9.86997 9.24658 10.2842ZM11.4966 11.0342C11.9108 11.0342 12.2466 10.6984 12.2466 10.2842C12.2466 9.86997 11.9108 9.53418 11.4966 9.53418C11.0824 9.53418 10.7466 9.86997 10.7466 10.2842C10.7466 10.6984 11.0824 11.0342 11.4966 11.0342Z" fill="#FF8F2E"/>
</svg>
