<svg width="16" height="16" viewBox="0 0 16 16" fill="none" xmlns="http://www.w3.org/2000/svg">
<path d="M9.33081 2.0924V5.8324C9.33081 6.3924 9.78079 6.8424 10.3408 6.8424H14.2008C14.8508 6.8424 15.3408 6.2424 15.1808 5.6124C14.9708 4.7624 14.5008 3.6424 13.4808 2.6624C12.4808 1.7024 11.3608 1.2824 10.5308 1.0924C9.91079 0.952397 9.3208 1.4424 9.3208 2.0824L9.33081 2.0924Z" fill="#FF8F2E" stroke="#FF8F2E" stroke-width="1.2" stroke-miterlimit="10"/>
<path d="M7.51077 7.68262V2.87262C7.51077 2.35262 7.05077 1.95262 6.54077 2.02262C3.37077 2.49262 0.950761 5.25262 1.00076 8.56262C1.05076 11.8726 3.95076 14.9226 7.41076 14.9826C10.8708 15.0426 13.4508 12.6426 13.9508 9.50262C14.0308 8.99262 13.6208 8.52262 13.1008 8.52262H8.36078C7.89078 8.52262 7.51077 8.14262 7.51077 7.67262V7.68262Z" fill="#FF8F2E" stroke="#FF8F2E" stroke-width="1.2" stroke-miterlimit="10"/>
</svg>
