<svg width="16" height="13" viewBox="0 0 16 13" fill="none" xmlns="http://www.w3.org/2000/svg">
<path fill-rule="evenodd" clip-rule="evenodd" d="M1.00323 2.82412C0.947981 3.05176 0.918701 3.28955 0.918701 3.53418V9.20085C0.918701 10.8577 2.26185 12.2008 3.9187 12.2008H12.9187C14.5756 12.2008 15.9187 10.8577 15.9187 9.20084V3.53418C15.9187 3.28975 15.8895 3.05216 15.8343 2.82469C15.7839 2.88643 15.7325 2.94915 15.6801 3.01268C14.8842 3.97707 13.8342 5.16195 12.878 5.9487C12.3206 6.40726 11.6217 6.87356 10.9665 7.27805C9.40196 8.24381 7.43604 8.24381 5.87153 7.27805C5.21628 6.87356 4.51738 6.40726 3.96003 5.9487C3.00381 5.16195 1.95384 3.97707 1.15793 3.01268C1.10534 2.94896 1.05374 2.88605 1.00323 2.82412ZM15.2464 1.6415C14.6963 0.965795 13.8579 0.53418 12.9187 0.53418H3.9187C2.97965 0.53418 2.14137 0.965636 1.59128 1.64113C1.74131 1.82983 1.90667 2.03465 2.08345 2.24886C2.87197 3.2043 3.86087 4.31315 4.72246 5.02203C5.21842 5.43009 5.86451 5.86349 6.50186 6.25693C7.68 6.98419 9.158 6.98419 10.3361 6.25693C10.9735 5.86349 11.6196 5.43009 12.1155 5.02203C12.9771 4.31315 13.966 3.2043 14.7546 2.24886C14.9312 2.03479 15.0965 1.8301 15.2464 1.6415Z" fill="#FF8F2E"/>
</svg>
