<svg width="15" height="15" viewBox="0 0 15 15" fill="none" xmlns="http://www.w3.org/2000/svg">
<path fill-rule="evenodd" clip-rule="evenodd" d="M7.7687 14.2342C11.5519 14.2342 14.6187 11.1673 14.6187 7.38418C14.6187 3.60103 11.5519 0.53418 7.7687 0.53418C3.98555 0.53418 0.918701 3.60103 0.918701 7.38418C0.918701 11.1673 3.98555 14.2342 7.7687 14.2342ZM7.8288 5.25416C8.27615 5.25416 8.6388 4.89151 8.6388 4.44416C8.6388 3.9968 8.27615 3.63416 7.8288 3.63416C7.38145 3.63416 7.0188 3.9968 7.0188 4.44416C7.0188 4.89151 7.38145 5.25416 7.8288 5.25416ZM8.3687 6.93423C8.3687 6.60286 8.10007 6.33423 7.7687 6.33423C7.43733 6.33423 7.1687 6.60286 7.1687 6.93423V11.1342C7.1687 11.4656 7.43733 11.7342 7.7687 11.7342C8.10007 11.7342 8.3687 11.4656 8.3687 11.1342V6.93423Z" fill="#FF8F2E"/>
</svg>
