<svg width="16" height="16" viewBox="0 0 16 16" fill="none" xmlns="http://www.w3.org/2000/svg">
<path fill-rule="evenodd" clip-rule="evenodd" d="M0.611328 3.06836C0.611328 1.4115 1.95447 0.0683594 3.61133 0.0683594H12.6113C14.2682 0.0683594 15.6113 1.41151 15.6113 3.06836V3.36841H0.611328V3.06836ZM0.611328 4.56841V12.0684C0.611328 13.7252 1.95445 15.0683 3.61128 15.0684L3.61128 4.56841L0.611328 4.56841ZM4.81128 15.0684H12.6113C14.2682 15.0684 15.6113 13.7252 15.6113 12.0684V4.56841L4.81128 4.56841L4.81128 15.0684ZM6.77832 6.1354C6.77832 5.80403 7.04695 5.5354 7.37832 5.5354H12.1783C12.5097 5.5354 12.7783 5.80403 12.7783 6.1354C12.7783 6.46677 12.5097 6.7354 12.1783 6.7354H7.37832C7.04695 6.7354 6.77832 6.46677 6.77832 6.1354ZM7.37832 8.15991C7.04695 8.15991 6.77832 8.42854 6.77832 8.75991C6.77832 9.09128 7.04695 9.35991 7.37832 9.35991H12.1783C12.5097 9.35991 12.7783 9.09128 12.7783 8.75991C12.7783 8.42854 12.5097 8.15991 12.1783 8.15991H7.37832ZM6.77832 11.3849C6.77832 11.0535 7.04695 10.7849 7.37832 10.7849H12.1783C12.5097 10.7849 12.7783 11.0535 12.7783 11.3849C12.7783 11.7163 12.5097 11.9849 12.1783 11.9849H7.37832C7.04695 11.9849 6.77832 11.7163 6.77832 11.3849Z" fill="#FF8F2E"/>
</svg>
